
<svg xmlns="http://www.w3.org/2000/svg" xml:space="preserve" width="100mm" height="100mm" version="1.1" style="shape-rendering:geometricPrecision; text-rendering:geometricPrecision; image-rendering:optimizeQuality; fill-rule:evenodd; clip-rule:evenodd"
viewBox="0 0 10000 10000"
 xmlns:xlink="http://www.w3.org/1999/xlink"
 xmlns:xodm="http://www.corel.com/coreldraw/odm/2003">
 <defs>
  <style type="text/css">
   <![CDATA[
    .fil1 {fill:#C88A00}
    .fil2 {fill:#EFAB00}
    .fil0 {fill:#FFC619}
   ]]>
  </style>
 </defs>
 <g id="Layer_x0020_1">
  <metadata id="CorelCorpID_0Corel-Layer"/>
  <g id="_105553385441248">
   <path class="fil0" d="M1601.55 3331.18c0,1045.3 47.72,1517.32 491.17,2463.44l628.32 1127.7c262.85,414.78 592.4,905.95 939.68,1385.96 110.83,-2.56 226.52,52.43 303.31,155.96 76.59,103.24 95.75,229.53 61.52,334.68 247.09,322.63 494.56,625.01 725.71,877.26 125.07,136.5 140,221.36 292.37,328.52 154.36,-108.54 892.18,-1103.39 1080.75,-1367.58 97.98,-137.29 161.04,-226.2 259.38,-363.17 330.14,-459.8 725.18,-1037.95 1083.63,-1676.09 -102.12,-120.17 -163.75,-275.78 -163.75,-445.81 0,-380.46 308.43,-688.89 688.89,-688.89 10.47,0 20.87,0.28 31.23,0.74 487.12,-1178.48 697.67,-2436.57 120.09,-3481.8 -106.54,-192.8 -213.73,-345.83 -338.24,-518.69 -74.73,-103.78 -298.96,-364.3 -400.39,-453.44 -315.76,-277.55 -570.27,-527.15 -993.8,-704.14 -1108.32,-463.2 -2356.29,-408.02 -3310.72,277.19 185.65,297.8 61.07,729.29 -289.86,980.54 -233.3,167.05 -509.79,213.7 -734.2,146.38 -290.59,466.73 -475.09,995.11 -475.09,1621.24z"/>
   <path class="fil1" d="M3116.33 572.01c-5.2,3.69 -10.44,7.29 -15.63,11.01 185.65,297.8 61.07,729.29 -289.86,980.54 -233.3,167.05 -509.79,213.7 -734.2,146.38l-1.89 3.05c7.55,5.47 15.19,10.88 22.96,16.17 387.16,263.01 900.34,193.7 1146.22,-154.81 216.17,-306.39 153.71,-726.55 -127.6,-1002.34z"/>
   <circle class="fil2" cx="5047.03" cy="3933.42" r="1420.33"/>
   <path class="fil1" d="M5047.03 2513.1c784.43,0 1420.34,635.9 1420.34,1420.32 0,69.38 -5.08,137.55 -14.68,204.27 -47.16,-702.12 -658.41,-1257.69 -1405.66,-1257.69 -747.24,0 -1358.49,555.57 -1405.65,1257.69 -9.6,-66.72 -14.68,-134.89 -14.68,-204.27 0,-784.42 635.91,-1420.32 1420.33,-1420.32z"/>
   <path class="fil1" d="M3793.48 8282.44c-44.12,0 -86.08,9.19 -124.11,25.75 108.17,0.42 219.88,55.22 294.67,156.05 77.36,104.29 96.11,232.11 60.43,337.9 49.84,-55.18 80.2,-128.29 80.2,-208.51 0,-171.87 -139.32,-311.19 -311.19,-311.19z"/>
   <circle class="fil2" cx="4493.48" cy="7070.24" r="488.82"/>
   <path class="fil1" d="M4493.48 6581.42c269.97,0 488.82,218.85 488.82,488.82 0,23.87 -1.75,47.34 -5.06,70.29 -16.22,-241.63 -226.59,-432.84 -483.76,-432.84 -257.17,0 -467.54,191.21 -483.77,432.84 -3.3,-22.95 -5.05,-46.42 -5.05,-70.29 0,-269.97 218.85,-488.82 488.82,-488.82z"/>
   <g>
    <circle class="fil2" cx="6212.67" cy="6234.91" r="201.49"/>
    <path class="fil1" d="M6212.67 6033.42c111.28,0 201.49,90.21 201.49,201.49 0,9.84 -0.72,19.51 -2.08,28.97 -6.69,-99.6 -93.41,-178.41 -199.41,-178.41 -106,0 -192.71,78.81 -199.4,178.41 -1.37,-9.46 -2.09,-19.13 -2.09,-28.97 0,-111.28 90.21,-201.49 201.49,-201.49z"/>
   </g>
   <circle class="fil2" cx="6568.16" cy="1295.06" r="201.49"/>
   <path class="fil1" d="M6568.16 1093.57c111.27,0 201.48,90.21 201.48,201.49 0,9.84 -0.72,19.51 -2.08,28.97 -6.69,-99.6 -93.4,-178.41 -199.4,-178.41 -106.01,0 -192.72,78.81 -199.41,178.41 -1.36,-9.46 -2.08,-19.13 -2.08,-28.97 0,-111.28 90.21,-201.49 201.49,-201.49z"/>
   <g>
    <circle class="fil2" cx="2471.07" cy="2824.31" r="126.04"/>
    <path class="fil1" d="M2471.07 2698.27c69.61,0 126.04,56.43 126.04,126.04 0,6.16 -0.45,12.21 -1.3,18.13 -4.19,-62.31 -58.43,-111.61 -124.74,-111.61 -66.32,0 -120.56,49.3 -124.74,111.61 -0.86,-5.92 -1.31,-11.97 -1.31,-18.13 0,-69.61 56.44,-126.04 126.05,-126.04z"/>
   </g>
   <path class="fil1" d="M7992.53 5463.16l7.68 0.06 -0.57 3.12c-199,40.18 -400.3,211.11 -514.59,461.8 -106.71,234.07 -111.16,479.81 -29.74,655.1 -94.87,-118.04 -151.67,-267.97 -151.67,-431.19 0,-380.46 308.43,-688.89 688.89,-688.89z"/>
  </g>
 </g>
</svg>
